HIERARCHY
ROOT joint_Root
{
	OFFSET 0.0 0.0 0.0
	CHANNELS 6 Xposition Yposition Zposition Zrotation Xrotation Yrotation 
	JOINT Hips
	{
		OFFSET 4.5925 91.4895 -427.239
		CHANNELS 6 Xposition Yposition Zposition Zrotation Xrotation Yrotation 
		JOINT Spine
		{
			OFFSET 15.7357 0.0 0.0
			CHANNELS 6 Xposition Yposition Zposition Zrotation Xrotation Yrotation 
			JOINT Chest
			{
				OFFSET 8.98455 -0.406207 0.0
				CHANNELS 6 Xposition Yposition Zposition Zrotation Xrotation Yrotation 
				JOINT Neck
				{
					OFFSET 16.3773 0.0 0.0
					CHANNELS 6 Xposition Yposition Zposition Zrotation Xrotation Yrotation 
					JOINT Head
					{
						OFFSET 6.45672 0.0 0.0
						CHANNELS 6 Xposition Yposition Zposition Zrotation Xrotation Yrotation 
						End Site
						{
							OFFSET 0.0 0.0 0.0
						}
					}
				}
				JOINT Shoulder_L
				{
					OFFSET 12.9942 -0.242716 4.98039
					CHANNELS 6 Xposition Yposition Zposition Zrotation Xrotation Yrotation 
					JOINT UpperArm_L
					{
						OFFSET 5.34809 0.0 0.0
						CHANNELS 6 Xposition Yposition Zposition Zrotation Xrotation Yrotation 
						JOINT LowerArm_L
						{
							OFFSET 24.3286 1.87007e-05 0.0
							CHANNELS 6 Xposition Yposition Zposition Zrotation Xrotation Yrotation 
							JOINT Hand_L
							{
								OFFSET 22.2916 0.0 0.0
								CHANNELS 6 Xposition Yposition Zposition Zrotation Xrotation Yrotation 
								End Site
								{
									OFFSET 0.0 0.0 0.0
								}
							}
						}
					}
				}
				JOINT Shoulder_R
				{
					OFFSET 12.9945 -0.242716 -4.98039
					CHANNELS 6 Xposition Yposition Zposition Zrotation Xrotation Yrotation 
					JOINT UpperArm_R
					{
						OFFSET -5.34813 0.0 0.0
						CHANNELS 6 Xposition Yposition Zposition Zrotation Xrotation Yrotation 
						JOINT LowerArm_R
						{
							OFFSET -24.3289 0.000322201 0.0
							CHANNELS 6 Xposition Yposition Zposition Zrotation Xrotation Yrotation 
							JOINT Hand_R
							{
								OFFSET -22.2915 -0.000108084 0.0
								CHANNELS 6 Xposition Yposition Zposition Zrotation Xrotation Yrotation 
								End Site
								{
									OFFSET 0.0 0.0 0.0
								}
							}
						}
					}
				}
			}
		}
		JOINT UpperLeg_L
		{
			OFFSET -2.19248 -6.46944 0.0
			CHANNELS 6 Xposition Yposition Zposition Zrotation Xrotation Yrotation 
			JOINT LowerLeg_L
			{
				OFFSET 39.0811 0.0 -1.23785e-05
				CHANNELS 6 Xposition Yposition Zposition Zrotation Xrotation Yrotation 
				JOINT Foot_L
				{
					OFFSET 40.9854 0.0 -1.26872e-05
					CHANNELS 6 Xposition Yposition Zposition Zrotation Xrotation Yrotation 
					JOINT Toes_L
					{
						OFFSET 11.7543 0.0 0.0
						CHANNELS 6 Xposition Yposition Zposition Zrotation Xrotation Yrotation 
						End Site
						{
							OFFSET 0.0 0.0 0.0
						}
					}
				}
			}
		}
		JOINT UpperLeg_R
		{
			OFFSET -2.19251 6.46944 0.0
			CHANNELS 6 Xposition Yposition Zposition Zrotation Xrotation Yrotation 
			JOINT LowerLeg_R
			{
				OFFSET -39.0811 -0.00228153 -0.0401928
				CHANNELS 6 Xposition Yposition Zposition Zrotation Xrotation Yrotation 
				JOINT Foot_R
				{
					OFFSET -40.9854 0.0 0.0
					CHANNELS 6 Xposition Yposition Zposition Zrotation Xrotation Yrotation 
					JOINT Toes_R
					{
						OFFSET -11.7543 0.0 0.0
						CHANNELS 6 Xposition Yposition Zposition Zrotation Xrotation Yrotation 
						End Site
						{
							OFFSET 0.0 0.0 0.0
						}
					}
				}
			}
		}
	}
}
MOTION
Frames:	9
Frame Time:	0.0333333
0.000000 0.000000 0.000000 0.000000 0.000000 -0.000000 -2.570220 90.666600 -6.115830 88.362000 0.489823 11.464500 15.735700 0.000005 -0.000001 87.055100 74.097900 -88.489100 8.984550 -0.406207 -0.000000 23.982600 -1.783880 -2.505600 16.377300 -0.000001 -0.000001 12.755800 -4.513600 1.160450 6.456720 -0.000001 -0.000000 -11.737000 -3.603310 -1.402550 12.994200 -0.242716 4.980390 -91.213500 6.618920 -79.586500 5.348090 -0.000007 -0.000001 -52.875700 32.641400 -33.279800 24.328600 0.000019 0.000005 10.340800 23.065400 -24.973000 22.291600 -0.000001 0.000005 11.188000 5.244010 1.590590 12.994500 -0.242716 -4.980390 89.341000 3.535300 -79.434000 -5.348130 -0.000001 -0.000004 -73.014200 -13.104600 -73.500300 -24.328900 0.000322 -0.000009 16.248500 -5.351630 -107.746000 -22.291500 -0.000108 -0.000004 30.693200 5.317180 -0.415004 -2.192480 -6.469440 -0.000000 -172.258000 -12.573600 -5.120620 39.081100 -0.000007 -0.000012 -0.147248 0.224864 33.218400 40.985400 -0.000006 -0.000013 -0.784481 6.142300 -66.168900 11.754300 -0.000000 0.000003 -0.000159 -0.001525 -16.635400 -2.192510 6.469440 -0.000001 175.881000 26.335500 177.901000 -39.081100 -0.002282 -0.040193 -0.173182 0.284196 31.839600 -40.985400 0.000008 0.000006 5.353790 14.106500 -68.101200 -11.754300 -0.000006 -0.000006 -0.002906 -0.039538 -18.181000
0.000000 0.000000 0.000000 0.000000 0.000000 -0.000000 -2.564070 90.660500 -6.121490 88.356900 0.463153 11.471500 15.735700 0.000005 -0.000001 87.030000 74.101500 -88.468700 8.984550 -0.406207 -0.000000 23.974600 -1.797570 -2.512140 16.377300 -0.000001 -0.000001 12.723500 -4.512100 1.137610 6.456720 -0.000001 -0.000000 -11.740200 -3.574180 -1.424070 12.994200 -0.242716 4.980390 -91.216300 6.624390 -79.571400 5.348090 -0.000007 -0.000001 -52.810600 32.673200 -33.334300 24.328600 0.000019 0.000005 10.342100 23.072900 -24.968900 22.291600 -0.000001 0.000005 11.124800 5.242150 1.639290 12.994500 -0.242716 -4.980390 89.330100 3.582880 -79.402300 -5.348130 -0.000001 -0.000004 -72.843400 -13.064200 -73.426400 -24.328900 0.000322 -0.000009 16.285700 -5.328390 -107.634000 -22.291500 -0.000108 -0.000004 30.630800 5.317160 -0.414176 -2.192480 -6.469440 -0.000000 -172.244000 -12.579100 -5.124440 39.081100 -0.000007 -0.000012 -0.151714 0.231405 33.250100 40.985400 -0.000006 -0.000013 -0.784684 6.142980 -66.187700 11.754300 -0.000000 0.000003 -0.000168 -0.001597 -16.638100 -2.192510 6.469440 -0.000001 175.882000 26.336900 177.887000 -39.081100 -0.002282 -0.040193 -0.172338 0.282509 31.869400 -40.985400 0.000008 0.000006 5.362550 14.129700 -68.110300 -11.754300 -0.000006 -0.000006 -0.002899 -0.039458 -18.177800
0.000000 0.000000 0.000000 0.000000 0.000000 -0.000000 -2.564520 90.665600 -6.129840 88.338000 0.424863 11.507800 15.735700 0.000005 -0.000001 87.048300 74.097300 -88.484300 8.984550 -0.406207 -0.000000 23.983700 -1.787910 -2.508840 16.377300 -0.000001 -0.000001 12.724700 -4.496250 1.124780 6.456720 -0.000001 -0.000000 -11.789400 -3.563210 -1.427130 12.994200 -0.242716 4.980390 -91.214200 6.620370 -79.582900 5.348090 -0.000007 -0.000001 -52.882300 32.611400 -33.301700 24.328600 0.000019 0.000005 10.364400 23.120900 -24.974100 22.291600 -0.000001 0.000005 11.097400 5.242820 1.621640 12.994500 -0.242716 -4.980390 89.325800 3.588420 -79.351700 -5.348130 -0.000001 -0.000004 -72.720400 -12.974700 -73.308300 -24.328900 0.000322 -0.000009 16.364000 -5.317500 -107.517000 -22.291500 -0.000108 -0.000004 30.560800 5.318050 -0.439717 -2.192480 -6.469440 -0.000000 -172.214000 -12.593200 -5.082770 39.081100 -0.000007 -0.000012 -0.149992 0.228923 33.233300 40.985400 -0.000006 -0.000013 -0.789049 6.130960 -66.172400 11.754300 -0.000000 0.000003 -0.000148 -0.001433 -16.632000 -2.192510 6.469440 -0.000001 175.894000 26.295600 177.935000 -39.081100 -0.002282 -0.040193 -0.172368 0.282980 31.831000 -40.985400 0.000008 0.000006 5.359940 14.141900 -68.083700 -11.754300 -0.000006 -0.000006 -0.002630 -0.036343 -18.051000
0.000000 0.000000 0.000000 0.000000 0.000000 -0.000000 -2.564030 90.658200 -6.141180 88.339000 0.383890 11.522200 15.735700 0.000005 -0.000001 87.015000 74.097400 -88.448800 8.984550 -0.406207 -0.000000 23.982400 -1.805430 -2.500610 16.377300 -0.000001 -0.000001 12.676200 -4.469820 1.112170 6.456720 -0.000001 -0.000000 -11.777200 -3.551690 -1.438900 12.994200 -0.242716 4.980390 -91.221400 6.648380 -79.565600 5.348090 -0.000007 -0.000001 -52.885500 32.607900 -33.285000 24.328600 0.000019 0.000005 10.347900 23.072000 -24.982400 22.291600 -0.000001 0.000005 11.135200 5.241770 1.649200 12.994500 -0.242716 -4.980390 89.337300 3.548070 -79.412800 -5.348130 -0.000001 -0.000004 -72.670400 -12.956500 -73.178500 -24.328900 0.000322 -0.000009 16.398700 -5.319860 -107.487000 -22.291500 -0.000108 -0.000004 30.578400 5.317940 -0.436671 -2.192480 -6.469440 -0.000000 -172.205000 -12.609400 -5.084620 39.081100 -0.000007 -0.000012 -0.151607 0.231082 33.268200 40.985400 -0.000006 -0.000013 -0.796710 6.104630 -66.185900 11.754300 -0.000000 0.000003 -0.000150 -0.001449 -16.632700 -2.192510 6.469440 -0.000001 175.891000 26.294300 177.915000 -39.081100 -0.002282 -0.040193 -0.174188 0.285457 31.871800 -40.985400 0.000008 0.000006 5.379710 14.178000 -68.093500 -11.754300 -0.000006 -0.000006 -0.002664 -0.036743 -18.067300
0.000000 0.000000 0.000000 0.000000 0.000000 -0.000000 -2.559250 90.666700 -6.157350 88.341800 0.365342 11.531200 15.735700 0.000005 -0.000001 87.027400 74.096400 -88.458900 8.984550 -0.406207 -0.000000 23.984800 -1.798600 -2.497490 16.377300 -0.000001 -0.000001 12.667400 -4.486050 1.117680 6.456720 -0.000001 -0.000000 -11.791300 -3.576710 -1.403360 12.994200 -0.242716 4.980390 -91.215600 6.639350 -79.600100 5.348090 -0.000007 -0.000001 -52.962600 32.545900 -33.246300 24.328600 0.000019 0.000005 10.366800 23.099500 -24.998500 22.291600 -0.000001 0.000005 11.124400 5.241940 1.644840 12.994500 -0.242716 -4.980390 89.328700 3.584200 -79.385000 -5.348130 -0.000001 -0.000004 -72.642600 -12.906200 -73.142100 -24.328900 0.000322 -0.000009 16.351100 -5.282670 -107.423000 -22.291500 -0.000108 -0.000004 30.606200 5.318560 -0.454374 -2.192480 -6.469440 -0.000000 -172.201000 -12.636000 -5.057080 39.081100 -0.000007 -0.000012 -0.154065 0.235225 33.223900 40.985400 -0.000006 -0.000013 -0.793218 6.117480 -66.157500 11.754300 -0.000000 0.000003 -0.000158 -0.001520 -16.635300 -2.192510 6.469440 -0.000001 175.889000 26.305400 177.932000 -39.081100 -0.002282 -0.040193 -0.171278 0.281224 31.831000 -40.985400 0.000008 0.000006 5.381170 14.189900 -68.061800 -11.754300 -0.000006 -0.000006 -0.002757 -0.037817 -18.111000
0.000000 0.000000 0.000000 0.000000 0.000000 -0.000000 -2.559750 90.665000 -6.178790 88.322500 0.354075 11.518000 15.735700 0.000005 -0.000001 87.025800 74.099400 -88.444500 8.984550 -0.406207 -0.000000 23.979000 -1.797260 -2.471930 16.377300 -0.000001 -0.000001 12.620400 -4.488000 1.134940 6.456720 -0.000001 -0.000000 -11.756600 -3.581660 -1.389800 12.994200 -0.242716 4.980390 -91.216800 6.647420 -79.602300 5.348090 -0.000007 -0.000001 -52.926800 32.579500 -33.270200 24.328600 0.000019 0.000005 10.361800 23.084200 -25.001600 22.291600 -0.000001 0.000005 11.166100 5.241670 1.651970 12.994500 -0.242716 -4.980390 89.322700 3.610300 -79.367500 -5.348130 -0.000001 -0.000004 -72.666500 -12.826300 -73.135100 -24.328900 0.000322 -0.000009 16.328100 -5.263350 -107.387000 -22.291500 -0.000108 -0.000004 30.612100 5.317170 -0.414475 -2.192480 -6.469440 -0.000000 -172.191000 -12.664500 -5.095580 39.081100 -0.000007 -0.000012 -0.149983 0.228788 33.247300 40.985400 -0.000006 -0.000013 -0.779462 6.129830 -66.156100 11.754300 -0.000000 0.000003 -0.000146 -0.001423 -16.631700 -2.192510 6.469440 -0.000001 175.908000 26.334000 177.904000 -39.081100 -0.002282 -0.040193 -0.174614 0.286593 31.831400 -40.985400 0.000008 0.000006 5.392890 14.234100 -68.049100 -11.754300 -0.000006 -0.000006 -0.002697 -0.037130 -18.083100
0.000000 0.000000 0.000000 0.000000 0.000000 -0.000000 -2.545480 90.673100 -6.196360 88.345200 0.343043 11.525100 15.735700 0.000005 -0.000001 87.019100 74.096300 -88.432700 8.984550 -0.406207 -0.000000 23.985100 -1.800510 -2.460940 16.377300 -0.000001 -0.000001 12.616900 -4.490170 1.165760 6.456720 -0.000001 -0.000000 -11.801700 -3.580270 -1.407430 12.994200 -0.242716 4.980390 -91.216700 6.657580 -79.619200 5.348090 -0.000007 -0.000001 -52.916000 32.590700 -33.268500 24.328600 0.000019 0.000005 10.342200 23.028900 -25.008800 22.291600 -0.000001 0.000005 11.152100 5.241400 1.658850 12.994500 -0.242716 -4.980390 89.311200 3.659460 -79.333200 -5.348130 -0.000001 -0.000004 -72.610700 -12.756000 -73.182100 -24.328900 0.000322 -0.000009 16.358600 -5.244960 -107.298000 -22.291500 -0.000108 -0.000004 30.665800 5.316430 -0.393211 -2.192480 -6.469440 -0.000000 -172.216000 -12.681000 -5.074520 39.081100 -0.000007 -0.000012 -0.150616 0.230202 33.196000 40.985400 -0.000006 -0.000013 -0.775783 6.127490 -66.117800 11.754300 -0.000000 0.000003 -0.000164 -0.001567 -16.637000 -2.192510 6.469440 -0.000001 175.891000 26.301300 177.909000 -39.081100 -0.002282 -0.040193 -0.170190 0.279757 31.804800 -40.985400 0.000008 0.000006 5.379450 14.219300 -68.020400 -11.754300 -0.000006 -0.000006 -0.002782 -0.038108 -18.122900
0.000000 0.000000 0.000000 0.000000 0.000000 -0.000000 -2.539180 90.677000 -6.216970 88.351300 0.340889 11.526500 15.735700 0.000005 -0.000001 87.061000 74.101500 -88.464700 8.984550 -0.406207 -0.000000 23.976000 -1.776050 -2.446360 16.377300 -0.000001 -0.000001 12.579800 -4.505560 1.190250 6.456720 -0.000001 -0.000000 -11.756800 -3.614020 -1.382880 12.994200 -0.242716 4.980390 -91.212500 6.658490 -79.655800 5.348090 -0.000007 -0.000001 -52.931300 32.586900 -33.245100 24.328600 0.000019 0.000005 10.320800 23.001000 -24.987500 22.291600 -0.000001 0.000005 11.177700 5.243640 1.600100 12.994500 -0.242716 -4.980390 89.317600 3.623900 -79.328700 -5.348130 -0.000001 -0.000004 -72.628500 -12.735300 -73.051200 -24.328900 0.000322 -0.000009 16.417800 -5.272970 -107.323000 -22.291500 -0.000108 -0.000004 30.642100 5.315710 -0.372997 -2.192480 -6.469440 -0.000000 -172.225000 -12.709400 -5.071810 39.081100 -0.000007 -0.000012 -0.150429 0.230098 33.175300 40.985400 -0.000006 -0.000013 -0.762740 6.148420 -66.098300 11.754300 -0.000000 0.000003 -0.000159 -0.001527 -16.635500 -2.192510 6.469440 -0.000001 175.874000 26.326200 177.906000 -39.081100 -0.002282 -0.040193 -0.171494 0.282020 31.790300 -40.985400 0.000008 0.000006 5.384000 14.261200 -67.999900 -11.754300 -0.000006 -0.000006 -0.002616 -0.036174 -18.044100
0.000000 0.000000 0.000000 0.000000 0.000000 -0.000000 -2.535290 90.682700 -6.229800 88.339000 0.341666 11.483200 15.735700 0.000005 -0.000001 87.027300 74.115700 -88.416000 8.984550 -0.406207 -0.000000 23.947000 -1.790370 -2.413640 16.377300 -0.000001 -0.000001 12.553600 -4.498530 1.219870 6.456720 -0.000001 -0.000000 -11.767100 -3.592660 -1.390270 12.994200 -0.242716 4.980390 -91.215500 6.659110 -79.631000 5.348090 -0.000007 -0.000001 -52.960500 32.573300 -33.220000 24.328600 0.000019 0.000005 10.359100 23.078200 -25.001200 22.291600 -0.000001 0.000005 11.151000 5.240430 1.684280 12.994500 -0.242716 -4.980390 89.319600 3.629640 -79.374800 -5.348130 -0.000001 -0.000004 -72.532200 -12.714800 -72.902200 -24.328900 0.000322 -0.000009 16.282800 -5.228400 -107.327000 -22.291500 -0.000108 -0.000004 30.679800 5.317020 -0.410392 -2.192480 -6.469440 -0.000000 -172.238000 -12.695700 -5.128610 39.081100 -0.000007 -0.000012 -0.148478 0.227260 33.158400 40.985400 -0.000006 -0.000013 -0.761521 6.126350 -66.072200 11.754300 -0.000000 0.000003 -0.000163 -0.001559 -16.636700 -2.192510 6.469440 -0.000001 175.911000 26.340800 177.862000 -39.081100 -0.002282 -0.040193 -0.168876 0.278156 31.757100 -40.985400 0.000008 0.000006 5.381110 14.265900 -67.971600 -11.754300 -0.000006 -0.000006 -0.002880 -0.039235 -18.168700
